<?xml version="1.0" standalone="no"?>
<!DOCTYPE svg PUBLIC "-//W3C//DTD SVG 1.0//EN" "http://www.w3.org/TR/2001/REC-SVG-20010904/DTD/svg10.dtd">
<svg xmlns="http://www.w3.org/2000/svg" xmlns:xlink="http://www.w3.org/1999/xlink" id="body_1" width="28" height="28">

<g transform="matrix(0.875 0 0 0.875 0 0)">
	<g transform="matrix(0.03125 0 0 0.03125 0 0)">
        <path d="M1024 512C 1024 653.3849 974.01294 774.06445 874.0387 874.0387C 774.06445 974.01294 653.3849 1024 512 1024C 370.6151 1024 249.93558 974.01294 149.96133 874.0387C 49.987114 774.06445 0 653.3849 0 512C 0 370.6151 49.987114 249.93558 149.96133 149.96133C 249.93558 49.987114 370.6151 0 512 0C 653.3849 0 774.06445 49.987114 874.0387 149.96133C 974.01294 249.93558 1024 370.6151 1024 512C 1024 517.958 1023.89606 523.9142 1023.6881 529.8685" stroke="none" fill="#008AAA" fill-rule="nonzero" />
        <path d="M786.2 395.5L705.60004 395.5C 704.10004 395.5 702.60004 394.7 701.9 393.4L701.9 393.4L637.2 281.2C 636.4 279.90002 635 279.1 633.4 279.1L633.4 279.1L369.40002 279.1C 367.90002 279.1 366.40002 279.9 365.7 281.2L365.7 281.2L298.40002 397.6L233.60002 509.8C 232.90002 511.09998 232.90002 512.7 233.60002 514.1L233.60002 514.1L298.40002 626.3L365.60004 742.8C 366.30005 744.1 367.80005 745 369.30005 744.89996L369.30005 744.89996L633.4 744.89996C 634.9 744.89996 636.4 744.1 637.2 742.8L637.2 742.8L702 630.6C 702.7 629.3 704.2 628.39996 705.7 628.5L705.7 628.5L786.3 628.5C 789 628.5 791.1 626.3 791.1 623.7L791.1 623.7L791.1 400.4C 791 397.69998 788.8 395.5 786.19995 395.5L786.19995 395.5L786.2 395.5zM477.5 630.6L457.2 665.6C 456.90002 666.1 456.40002 666.6 455.90002 666.89996C 455.30002 667.19995 454.7 667.39996 454.00003 667.39996L454.00003 667.39996L413.70004 667.39996C 412.30005 667.39996 411.00003 666.69995 410.40005 665.39996L410.40005 665.39996L350.30005 561.1L344.40005 550.8L322.80005 513.89996C 322.50006 513.39996 322.30005 512.8 322.40005 512.1C 322.40005 511.49997 322.60007 510.8 322.90005 510.3L322.90005 510.3L344.60007 472.69998L410.50006 358.69998C 411.20007 357.49997 412.50006 356.69998 413.80005 356.69998L413.80005 356.69998L454 356.69998C 454.7 356.69998 455.4 356.9 456.1 357.19998C 456.6 357.49997 457.1 357.9 457.4 358.49997L457.4 358.49997L477.69998 393.69998C 478.3 394.9 478.19998 396.4 477.49997 397.49997L477.49997 397.49997L412.39996 510.3C 412.09998 510.8 411.99997 511.4 411.99997 511.9C 411.99997 512.5 412.19998 513 412.39996 513.5L412.39996 513.5L477.49997 626.2C 478.39996 627.7 478.29996 629.3 477.49997 630.60004zM679.6 513.89996L658 550.8L652.1 561.1L592 665.4C 591.3 666.60004 590.1 667.4 588.7 667.4L588.7 667.4L548.4 667.4C 547.7 667.4 547.10004 667.2 546.5 666.9C 546 666.60004 545.5 666.2 545.2 665.60004L545.2 665.60004L524.9 630.60004C 524 629.30005 524 627.7 524.80005 626.4L524.80005 626.4L589.9 513.7C 590.2 513.2 590.30005 512.60004 590.30005 512.10004C 590.30005 511.50003 590.10004 511.00003 589.9 510.50003L589.9 510.50003L524.80005 397.7C 524.10004 396.5 524.00006 395.1 524.60004 393.90002L524.60004 393.90002L544.9 358.7C 545.2 358.2 545.7 357.7 546.2 357.40002C 546.8 357.00003 547.5 356.90002 548.3 356.90002L548.3 356.90002L588.7 356.90002C 590.10004 356.90002 591.4 357.60004 592 358.90002L592 358.90002L657.9 472.90002L679.60004 510.50003C 679.9 511.10004 680.10004 511.70004 680.10004 512.30005C 680.10004 512.7001 679.9 513.30005 679.60004 513.9z" stroke="none" fill="#FFFFFF" fill-rule="nonzero" />
	</g>
</g>
</svg>