<svg width="96" height="27" viewBox="0 0 96 27" fill="none" xmlns="http://www.w3.org/2000/svg">
<path d="M57.5298 9.58577L53.9467 11.4929C53.3816 10.3371 52.6817 9.75914 51.8469 9.75914C51.4488 9.75914 51.1085 9.89399 50.8259 10.1637C50.5434 10.4205 50.4021 10.7544 50.4021 11.1654C50.4021 11.8846 51.2369 12.5974 52.9064 13.3037C55.2053 14.2926 56.7528 15.2044 57.549 16.0392C58.3453 16.874 58.7434 17.9977 58.7434 19.4104C58.7434 21.2212 58.0756 22.7366 56.74 23.9567C55.4429 25.1125 53.8761 25.6904 52.0396 25.6904C48.8931 25.6904 46.6649 24.1557 45.355 21.0863L49.0537 19.3718C49.5674 20.2708 49.9591 20.8423 50.2288 21.0863C50.7553 21.5744 51.3846 21.8184 52.1166 21.8184C53.5807 21.8184 54.3127 21.1505 54.3127 19.8149C54.3127 19.0444 53.7476 18.3252 52.6175 17.6574C52.1808 17.439 51.7442 17.2271 51.3075 17.0216C50.8709 16.8162 50.4278 16.6043 49.9783 16.3859C48.7197 15.7695 47.8336 15.153 47.3199 14.5366C46.6649 13.7532 46.3374 12.7451 46.3374 11.5122C46.3374 9.88115 46.8961 8.53267 48.0134 7.46673C49.1564 6.4008 50.5434 5.86783 52.1744 5.86783C54.576 5.86783 56.3611 7.10714 57.5298 9.58577Z" fill="#F3992E"/>
<path d="M62.654 6.38795H66.9884V8.06392C67.7846 7.22915 68.491 6.65765 69.1074 6.34943C69.7367 6.02836 70.4816 5.86783 71.342 5.86783C72.485 5.86783 73.6794 6.24026 74.9251 6.98514L72.9409 10.9535C72.119 10.3627 71.3163 10.0674 70.5329 10.0674C68.1699 10.0674 66.9884 11.8525 66.9884 15.4227V25.151H62.654V6.38795Z" fill="#F3992E"/>
<path d="M81.4363 6.38795L86.2908 16.9253L91.1261 6.38795H95.9999L86.2523 26.4417L76.5818 6.38795H81.4363Z" fill="#F3992E"/>
<path fill-rule="evenodd" clip-rule="evenodd" d="M9.86313 26.1373C15.3104 26.1373 19.7263 21.7214 19.7263 16.2742C19.7263 10.8269 15.3104 6.41104 9.86313 6.41104C4.41587 6.41104 0 10.8269 0 16.2742C0 21.7214 4.41587 26.1373 9.86313 26.1373ZM9.86304 22.1921C13.1314 22.1921 15.7809 19.5426 15.7809 16.2742C15.7809 13.0059 13.1314 10.3564 9.86304 10.3564C6.59469 10.3564 3.94516 13.0059 3.94516 16.2742C3.94516 19.5426 6.59469 22.1921 9.86304 22.1921Z" fill="#36539A"/>
<path fill-rule="evenodd" clip-rule="evenodd" d="M27.6166 0H23.6714V16.2742H23.6714C23.6714 16.2742 23.6714 16.2742 23.6714 16.2742C23.6714 21.7214 28.0873 26.1373 33.5345 26.1373C38.9818 26.1373 43.3977 21.7214 43.3977 16.2742C43.3977 10.8269 38.9818 6.41105 33.5345 6.41105C31.3141 6.41105 29.2651 7.14477 27.6166 8.38297V0ZM39.4526 16.2742C39.4526 19.5426 36.803 22.1921 33.5347 22.1921C30.2663 22.1921 27.6168 19.5426 27.6168 16.2742C27.6168 13.0059 30.2663 10.3564 33.5347 10.3564C36.803 10.3564 39.4526 13.0059 39.4526 16.2742Z" fill="#36539A"/>
<path fill-rule="evenodd" clip-rule="evenodd" d="M13.9467 14.1032C13.1521 13.6686 12.2402 13.4216 11.2707 13.4216C8.52301 13.4216 6.2388 15.4058 5.77272 18.0194C5.43046 17.3816 5.23633 16.6525 5.23633 15.878C5.23633 13.3732 7.26688 11.3426 9.7717 11.3426C11.6467 11.3426 13.2559 12.4804 13.9467 14.1032Z" fill="#F3992E"/>
<path fill-rule="evenodd" clip-rule="evenodd" d="M29.9704 13.5518C30.5214 13.3699 31.1103 13.2715 31.7222 13.2715C34.7982 13.2715 37.2933 15.7581 37.3071 18.8308C37.9883 18.0374 38.3999 17.0058 38.3999 15.878C38.3999 13.3732 36.3693 11.3426 33.8645 11.3426C32.2101 11.3426 30.7625 12.2285 29.9704 13.5518Z" fill="#F3992E"/>
<path d="M22.685 13.8084L20.4658 13.8084C20.4658 13.8084 19.9727 11.8358 18.7398 10.1097C17.5237 8.40714 16.7672 7.8905 16.7672 7.8905C16.7672 7.8905 18.2466 8.38366 20.2193 8.38366C22.1919 8.38366 22.685 7.8905 22.685 7.8905C22.685 7.8905 22.685 9.56937 22.6851 10.8494C22.6851 12.3289 22.685 13.8084 22.685 13.8084Z" fill="#F3992E"/>
</svg>
